<svg id="Page-1" xmlns="http://www.w3.org/2000/svg" width="31.579" height="35.247" viewBox="0 0 31.579 35.247">
  <g id="_118---Forward" data-name="118---Forward" transform="translate(0 0)">
    <path id="Shape" d="M29.181,10.635a1.215,1.215,0,0,0-1.906,1.506,13.221,13.221,0,0,1,2.873,8.278A13.36,13.36,0,1,1,15.215,7.156L13.57,8.566a1.215,1.215,0,0,0,1.579,1.845L19.4,6.767a1.215,1.215,0,0,0,0-1.845L15.149,1.279A1.215,1.215,0,1,0,13.57,3.124L15.4,4.695A15.789,15.789,0,1,0,32.578,20.42,15.627,15.627,0,0,0,29.181,10.635Z" transform="translate(-0.999 -0.965)" fill="#fff"/>
    <path id="Shape-2" data-name="Shape" d="M34.278,10.277a1.215,1.215,0,0,0,1.713.132l4.251-3.644a1.215,1.215,0,0,0,0-1.845L35.991,1.277a1.215,1.215,0,1,0-1.579,1.845l3.173,2.722L34.411,8.565a1.215,1.215,0,0,0-.133,1.712Z" transform="translate(-13.945 -0.965)" fill="#fff"/>
    <path id="Shape-3" data-name="Shape" d="M14.993,31.429a.993.993,0,1,0,0,1.985H17.97a.993.993,0,1,0,0-1.985h-.5V22.993a.993.993,0,0,0-1.543-.826l-1.489.993a.993.993,0,0,0,1.047,1.685v6.584Z" transform="translate(-4.662 -7.949)" fill="#fff"/>
    <path id="Shape-4" data-name="Shape" d="M29.481,22A2.481,2.481,0,0,0,27,24.481v6.451a2.481,2.481,0,0,0,2.481,2.481H30.97a2.481,2.481,0,0,0,2.481-2.481V24.481A2.481,2.481,0,0,0,30.97,22Zm1.985,2.481v6.451a.5.5,0,0,1-.5.5H29.481a.5.5,0,0,1-.5-.5V24.481a.5.5,0,0,1,.5-.5H30.97A.5.5,0,0,1,31.466,24.481Z" transform="translate(-11.21 -7.949)" fill="#fff"/>
  </g>
</svg>
