<svg xmlns="http://www.w3.org/2000/svg" width="31.574" height="35.247" viewBox="0 0 31.574 35.247">
  <g id="Page-1" transform="translate(0)">
    <g id="_118---Forward" data-name="118---Forward" transform="translate(0 0)">
      <path id="Shape" d="M4.4,10.635A1.214,1.214,0,0,1,6.3,12.141,13.222,13.222,0,0,0,3.428,20.42,13.358,13.358,0,1,0,18.36,7.156L20,8.566a1.214,1.214,0,0,1-1.579,1.845l-4.25-3.644a1.215,1.215,0,0,1,0-1.845l4.25-3.644A1.214,1.214,0,1,1,20,3.124L18.171,4.695A15.789,15.789,0,1,1,1,20.42,15.628,15.628,0,0,1,4.4,10.635Z" transform="translate(-0.999 -0.965)" fill="#fff"/>
      <path id="Shape-2" data-name="Shape" d="M40.423,10.277a1.238,1.238,0,0,1-1.732.132l-4.3-3.644a1.206,1.206,0,0,1,0-1.845l4.3-3.644a1.238,1.238,0,0,1,1.221-.247,1.209,1.209,0,0,1,.375,2.091L37.079,5.844l3.21,2.721a1.205,1.205,0,0,1,.134,1.712Z" transform="translate(-29.121 -0.965)" fill="#fff"/>
      <path id="Shape-3" data-name="Shape" d="M14.993,31.429a.993.993,0,1,0,0,1.985H17.97a.993.993,0,1,0,0-1.985h-.5V22.993a.993.993,0,0,0-1.543-.826l-1.489.993a.993.993,0,0,0,1.047,1.685v6.584Z" transform="translate(-4.664 -7.949)" fill="#fff"/>
      <path id="Shape-4" data-name="Shape" d="M29.481,22A2.481,2.481,0,0,0,27,24.481v6.451a2.481,2.481,0,0,0,2.481,2.481H30.97a2.481,2.481,0,0,0,2.481-2.481V24.481A2.481,2.481,0,0,0,30.97,22Zm1.985,2.481v6.451a.5.5,0,0,1-.5.5H29.481a.5.5,0,0,1-.5-.5V24.481a.5.5,0,0,1,.5-.5H30.97A.5.5,0,0,1,31.466,24.481Z" transform="translate(-11.213 -7.949)" fill="#fff"/>
    </g>
  </g>
</svg>
